<svg width="401" height="401" viewBox="0 0 401 401" fill="none" xmlns="http://www.w3.org/2000/svg">
<path fill-rule="evenodd" clip-rule="evenodd" d="M200.5 0C167.188 0 134.793 3.03614 103.974 6.47329C78.9611 9.32959 55.6595 20.5936 37.884 38.4211C20.1086 56.2485 8.91275 79.583 6.12957 104.604C2.86429 135.252 0 167.446 0 200.5C0 233.554 2.86429 265.748 6.12957 296.396C8.91275 321.417 20.1086 344.751 37.884 362.579C55.6595 380.406 78.9611 391.67 103.974 394.527C134.793 397.964 167.188 401 200.5 401C233.812 401 266.207 397.964 297.026 394.527C322.039 391.67 345.341 380.406 363.116 362.579C380.891 344.751 392.087 321.417 394.87 296.396C398.136 265.748 401 233.554 401 200.5C401 167.446 398.136 135.252 394.87 104.604C392.087 79.583 380.891 56.2485 363.116 38.4211C345.341 20.5936 322.039 9.32959 297.026 6.47329C266.207 3.03614 233.812 0 200.5 0Z" fill="white"/>
<path fill-rule="evenodd" clip-rule="evenodd" d="M200.5 0C167.188 0 134.793 3.03614 103.974 6.47329C79.0536 9.31796 55.8287 20.5087 38.0749 38.2261C20.3212 55.9434 9.08277 79.1454 6.18695 104.059H394.813C391.917 79.1454 380.679 55.9434 362.925 38.2261C345.171 20.5087 321.947 9.31796 297.027 6.47329C266.264 3.03614 233.812 0 200.5 0ZM307.195 211.098C308.586 208.644 309.481 205.939 309.828 203.139C310.174 200.339 309.966 197.498 309.215 194.778C308.463 192.059 307.183 189.514 305.449 187.289C303.714 185.064 301.557 183.202 299.103 181.811C296.649 180.419 293.944 179.524 291.144 179.178C288.344 178.831 285.503 179.039 282.784 179.791C280.064 180.542 277.519 181.822 275.294 183.557C273.069 185.292 271.208 187.448 269.816 189.902L226.107 266.808C207.879 263.336 189.135 263.609 171.015 267.61C152.896 271.61 135.779 279.256 120.708 290.08C105.636 300.905 92.9248 314.683 83.3462 330.575C73.7677 346.468 67.5225 364.143 64.9907 382.525C76.8775 388.769 90.0532 392.951 103.945 394.498C134.765 397.964 167.188 401 200.5 401C233.812 401 266.235 397.964 297.055 394.527C310.976 392.98 324.123 388.798 336.009 382.554C333.109 361.561 325.375 341.529 313.416 324.033C301.458 306.537 285.601 292.057 267.095 281.731L307.195 211.098Z" fill="#2859C5"/>
</svg>
