<svg width="24" height="24" viewBox="0 0 24 24" fill="none" xmlns="http://www.w3.org/2000/svg">
<path d="M18.024 7.04299C16.8528 5.87629 15.3626 5.08233 13.741 4.76114C12.1194 4.43996 10.439 4.60592 8.91151 5.23811C7.38406 5.87031 6.0779 6.94045 5.1576 8.31371C4.23731 9.68696 3.74405 11.3019 3.73999 12.955" stroke="white" stroke-width="1.5" stroke-miterlimit="10" stroke-linecap="round"/>
<path d="M17.35 2.75L18.182 6.122C18.2203 6.26895 18.2284 6.42214 18.2059 6.57231C18.1833 6.72248 18.1305 6.86652 18.0507 6.9957C17.9708 7.12488 17.8656 7.23654 17.7414 7.3239C17.6172 7.41127 17.4766 7.47254 17.328 7.504L13.956 8.347" stroke="white" stroke-width="1.5" stroke-linecap="round" stroke-linejoin="round"/>
<path d="M5.97601 16.9569C7.14711 18.124 8.63747 18.9182 10.2592 19.2396C11.881 19.561 13.5616 19.3951 15.0893 18.7629C16.617 18.1306 17.9233 17.0603 18.8436 15.6869C19.764 14.3134 20.2571 12.6982 20.261 11.0449" stroke="white" stroke-width="1.5" stroke-miterlimit="10" stroke-linecap="round"/>
<path d="M6.64998 21.2503L5.81798 17.8783C5.77982 17.7313 5.77185 17.5781 5.79455 17.4279C5.81725 17.2777 5.87015 17.1337 5.95006 17.0046C6.02997 16.8754 6.13523 16.7638 6.25948 16.6764C6.38373 16.5891 6.52439 16.5278 6.67298 16.4963L10.044 15.6533" stroke="white" stroke-width="1.5" stroke-linecap="round" stroke-linejoin="round"/>
</svg>
